<svg width="183" height="30" viewBox="0 0 183 30" fill="none" xmlns="http://www.w3.org/2000/svg">
<path d="M174.661 16.4044C173.937 16.4125 173.215 16.3178 172.517 16.1232L174.614 11.4362L176.712 16.1232C176.046 16.3213 175.355 16.4161 174.661 16.4044ZM182.119 19.9664L177.225 9.2334C176.665 8.06167 175.919 7.54611 174.801 7.54611H174.614C173.449 7.54611 172.703 8.06167 172.144 9.2334L167.25 19.9664C166.783 21.0444 167.11 21.9818 168.089 22.3568C168.292 22.4541 168.514 22.5082 168.74 22.5157C168.965 22.5232 169.19 22.484 169.4 22.4005C169.61 22.3169 169.8 22.1909 169.959 22.0302C170.119 21.8695 170.244 21.6775 170.326 21.4663L171.445 19.1228C172.531 19.4645 173.663 19.6384 174.801 19.6384C175.894 19.654 176.982 19.4795 178.017 19.1228L179.089 21.4663C179.171 21.6775 179.296 21.8695 179.456 22.0302C179.615 22.1909 179.805 22.3169 180.015 22.4005C180.225 22.484 180.45 22.5232 180.675 22.5157C180.901 22.5082 181.123 22.4541 181.326 22.3568C181.535 22.2527 181.721 22.1081 181.874 21.9315C182.027 21.7548 182.143 21.5495 182.217 21.3273C182.291 21.1052 182.32 20.8706 182.303 20.637C182.286 20.4035 182.224 20.1756 182.119 19.9664ZM163.987 19.0759H156.482L163.894 12.3736C164.966 11.4362 165.385 10.6395 165.385 9.65522V9.51461C165.385 8.29601 164.639 7.54611 163.288 7.54611H153.821C153.585 7.53399 153.349 7.57177 153.129 7.65699C152.908 7.74221 152.708 7.87298 152.541 8.04084C152.374 8.2087 152.244 8.40992 152.16 8.63149C152.075 8.85306 152.037 9.09005 152.049 9.32714C152.04 9.55944 152.08 9.79114 152.166 10.0066C152.253 10.2221 152.385 10.4163 152.553 10.5762C152.721 10.7361 152.921 10.858 153.14 10.9336C153.358 11.0092 153.59 11.0367 153.821 11.0144H160.766L153.588 17.5292C152.189 18.7947 151.863 19.5446 151.863 20.482V20.6695C151.863 21.8881 152.655 22.638 153.914 22.638H163.935C164.168 22.6511 164.4 22.6155 164.617 22.5336C164.835 22.4517 165.033 22.3253 165.2 22.1622C165.367 21.9992 165.498 21.8032 165.585 21.5865C165.672 21.3699 165.714 21.1374 165.707 20.9038C165.741 20.6639 165.72 20.4194 165.647 20.1886C165.574 19.9577 165.45 19.7465 165.284 19.5707C165.118 19.395 164.915 19.2591 164.689 19.1735C164.464 19.0878 164.222 19.0544 163.982 19.0759H163.987ZM148.274 19.0759H140.769L148.181 12.3736C149.253 11.4362 149.672 10.6395 149.672 9.65522V9.51461C149.672 8.29601 148.926 7.54611 147.575 7.54611H138.112C137.877 7.53399 137.641 7.57177 137.421 7.65699C137.2 7.74221 137 7.87298 136.833 8.04084C136.666 8.2087 136.536 8.40992 136.451 8.63149C136.367 8.85306 136.329 9.09005 136.341 9.32714C136.331 9.55944 136.371 9.79114 136.458 10.0066C136.545 10.2221 136.677 10.4163 136.845 10.5762C137.013 10.7361 137.213 10.858 137.431 10.9336C137.65 11.0092 137.882 11.0367 138.112 11.0144H145.058L137.879 17.5292C136.481 18.7947 136.155 19.5446 136.155 20.482V20.6695C136.155 21.8881 136.947 22.638 138.206 22.638H148.227C148.459 22.6511 148.691 22.6155 148.909 22.5336C149.127 22.4517 149.325 22.3253 149.492 22.1622C149.658 21.9992 149.789 21.8032 149.877 21.5865C149.964 21.3699 150.005 21.1374 149.998 20.9038C150.092 19.779 149.439 19.0759 148.274 19.0759ZM131.354 7.35863C131.108 7.34194 130.863 7.37741 130.632 7.46272C130.401 7.54804 130.191 7.68129 130.015 7.85377C129.839 8.02625 129.702 8.2341 129.611 8.46374C129.52 8.69339 129.479 8.93967 129.489 9.18653V20.8101C129.483 21.0558 129.527 21.3001 129.62 21.5278C129.712 21.7554 129.85 21.9615 130.025 22.1331C130.2 22.3047 130.408 22.4381 130.637 22.525C130.865 22.6118 131.109 22.6503 131.354 22.638C131.599 22.6547 131.845 22.6192 132.075 22.5339C132.306 22.4486 132.516 22.3153 132.692 22.1428C132.868 21.9704 133.006 21.7625 133.096 21.5329C133.187 21.3032 133.228 21.0569 133.218 20.8101V9.18653C133.217 8.94286 133.168 8.70186 133.073 8.47756C132.978 8.25326 132.84 8.05014 132.666 7.88003C132.493 7.70992 132.288 7.57622 132.062 7.48671C131.837 7.39719 131.596 7.35365 131.354 7.35863ZM121.425 14.7171H117.23V10.9207H121.425C121.673 10.9155 121.92 10.9624 122.149 11.0584C122.378 11.1544 122.585 11.2974 122.756 11.4782C122.927 11.659 123.059 11.8737 123.142 12.1086C123.226 12.3435 123.261 12.5934 123.243 12.8423C123.26 13.0888 123.224 13.3361 123.14 13.568C123.055 13.7999 122.922 14.0111 122.751 14.188C122.579 14.365 122.372 14.5035 122.144 14.5947C121.916 14.6858 121.671 14.7275 121.425 14.7171ZM121.425 7.49924H115.412C115.176 7.48712 114.941 7.5249 114.72 7.61012C114.5 7.69534 114.3 7.82611 114.133 7.99397C113.966 8.16183 113.836 8.36305 113.751 8.58462C113.667 8.80619 113.629 9.04318 113.641 9.28027V20.857C113.634 21.0967 113.677 21.3353 113.767 21.5576C113.856 21.7799 113.991 21.9811 114.161 22.1485C114.332 22.3158 114.536 22.4458 114.759 22.53C114.982 22.6143 115.221 22.651 115.459 22.638C115.695 22.6501 115.93 22.6123 116.151 22.5271C116.371 22.4419 116.571 22.3111 116.738 22.1432C116.905 21.9754 117.035 21.7742 117.12 21.5526C117.205 21.331 117.242 21.094 117.23 20.857V18.1385H121.425C124.688 18.1385 126.739 15.842 126.739 12.7955C126.739 9.74896 124.646 7.49924 121.43 7.49924H121.425ZM99.0561 19.2165C96.6789 19.2165 95.0008 17.4355 95.0008 14.9983C95.0008 13.9169 95.4281 12.8797 96.1886 12.115C96.9491 11.3503 97.9806 10.9207 99.0561 10.9207C100.132 10.9207 101.163 11.3503 101.924 12.115C102.684 12.8797 103.111 13.9169 103.111 14.9983C103.111 17.4355 101.527 19.2165 99.0561 19.2165ZM99.0561 7.35863C98.0492 7.33313 97.0477 7.51295 96.1118 7.88725C95.176 8.26155 94.3252 8.82258 93.6109 9.53649C92.8965 10.2504 92.3334 11.1024 91.9554 12.0411C91.5775 12.9798 91.3925 13.9858 91.4117 14.9983C91.4179 17.0369 92.2292 18.9895 93.6672 20.4266C95.1051 21.8638 97.052 22.6676 99.0794 22.6614C101.107 22.6552 103.049 21.8394 104.478 20.3935C105.907 18.9476 106.707 16.99 106.7 14.9514C106.7 10.5926 103.391 7.35863 99.0561 7.35863ZM81.763 19.0291H78.6866V10.9676H81.763C84.2334 10.9676 85.9115 12.4674 85.9115 14.9514C85.9115 17.4355 84.2801 19.0291 81.763 19.0291ZM81.763 7.49924H76.8687C76.6255 7.4972 76.3843 7.54466 76.1598 7.63876C75.9353 7.73285 75.732 7.87164 75.5621 8.04677C75.3923 8.22191 75.2595 8.42977 75.1716 8.65785C75.0838 8.88594 75.0427 9.12954 75.0509 9.374V20.7163C75.0441 20.9561 75.0868 21.1947 75.1764 21.417C75.2659 21.6393 75.4004 21.8405 75.5712 22.0078C75.7421 22.1752 75.9456 22.3052 76.1689 22.3894C76.3923 22.4737 76.6306 22.5104 76.8687 22.4974H81.763C86.1445 22.4974 89.454 19.4509 89.454 14.9514C89.454 10.452 86.1445 7.49924 81.763 7.49924ZM65.0293 19.2165C62.6521 19.2165 60.974 17.4355 60.974 14.9983C60.974 13.9169 61.4013 12.8797 62.1618 12.115C62.9223 11.3503 63.9537 10.9207 65.0293 10.9207C66.1048 10.9207 67.1363 11.3503 67.8968 12.115C68.6573 12.8797 69.0845 13.9169 69.0845 14.9983C69.0845 17.4355 67.4997 19.2165 65.0293 19.2165ZM65.0293 7.35863C64.0224 7.33313 63.0209 7.51295 62.085 7.88725C61.1492 8.26155 60.2984 8.82258 59.5841 9.53649C58.8697 10.2504 58.3066 11.1024 57.9286 12.0411C57.5506 12.9798 57.3657 13.9858 57.3849 14.9983C57.3911 17.0369 58.2024 18.9895 59.6404 20.4266C61.0783 21.8638 63.0252 22.6676 65.0526 22.6614C67.08 22.6552 69.0219 21.8394 70.4511 20.3935C71.8804 18.9476 72.6798 16.99 72.6736 14.9514C72.6736 10.5926 69.3642 7.35863 65.0293 7.35863ZM47.7828 19.0291H44.7064V10.9676H47.7828C50.2532 10.9676 51.9313 12.4674 51.9313 14.9514C51.9313 17.4355 50.2532 19.0291 47.7828 19.0291ZM47.7828 7.49924H42.8839C42.6406 7.4972 42.3995 7.54466 42.1749 7.63876C41.9504 7.73285 41.7471 7.87164 41.5773 8.04677C41.4075 8.22191 41.2746 8.42977 41.1868 8.65785C41.0989 8.88594 41.0578 9.12954 41.066 9.374V20.7163C41.0592 20.9561 41.1019 21.1947 41.1915 21.417C41.2811 21.6393 41.4155 21.8405 41.5864 22.0078C41.7572 22.1752 41.9607 22.3052 42.1841 22.3894C42.4074 22.4737 42.6457 22.5104 42.8839 22.4974H47.7781C52.1597 22.4974 55.4691 19.4509 55.4691 14.9514C55.4691 10.452 52.1177 7.49924 47.7828 7.49924Z" fill="#121212"/>
<path d="M13.3134 0C21.9552 0 28.6021 5.99458 28.6021 14.881C28.6021 23.7674 21.9552 29.9963 13.3041 29.9963H3.59014C2.68236 30.0384 1.79508 29.7165 1.12306 29.1014C0.451033 28.4863 0.0491762 27.6282 0.00568789 26.7155V3.74954C-0.0207225 3.28209 0.0450208 2.81399 0.199138 2.37217C0.353255 1.93035 0.592705 1.52352 0.903722 1.17507C1.21474 0.826618 1.59119 0.543421 2.01142 0.34176C2.43166 0.1401 2.88739 0.0239539 3.35242 0L13.3134 0Z" fill="#FF781A"/>
<path d="M23.2603 11.666C23.2137 12.0363 22.7942 12.0363 22.5891 11.7129C21.9832 10.6864 21.1908 10.4943 19.9369 10.4005C19.0047 10.3537 17.9186 10.4474 16.8698 10.4474H16.8232L16.7487 10.4052C16.7065 10.37 16.6797 10.3195 16.6741 10.2646C16.8605 9.37877 17.6063 7.74771 18.3941 7.59773C18.7623 7.55086 19.606 7.45712 20.0674 7.45712C22.2022 7.45244 23.3536 9.93652 23.2603 11.666ZM11.1506 20.1541C12.7269 20.576 14.3615 20.7344 15.9889 20.6228C18.12 20.4773 20.1816 19.8008 21.9878 18.6542C21.3166 20.44 18.6458 21.5601 16.1287 21.8273C16.1287 21.9679 16.0821 22.057 16.0821 22.1976C17.6825 22.132 19.2441 21.682 20.6361 20.8852C20.17 22.6147 17.8394 23.3224 15.7045 23.463C15.6517 23.591 15.5894 23.7148 15.5181 23.8333C16.5745 23.8568 17.6285 23.7225 18.6458 23.4349C17.6623 25.2628 13.4812 26.5283 9.94798 24.841C10.6856 23.3857 11.0991 21.7863 11.1599 20.1541H11.1506ZM22.8408 7.69147C22.4504 7.31797 21.9904 7.02587 21.4872 6.83201C20.984 6.63814 20.4476 6.54635 19.9089 6.56192C18.5106 6.56192 17.3546 6.93218 15.63 6.97905C14.4647 7.02592 13.3973 4.46216 12.0036 4.1247C11.9104 3.84962 11.753 3.60099 11.5446 3.39965C11.3362 3.19831 11.0828 3.05012 10.8058 2.9675C10.5287 2.88488 10.2359 2.87023 9.95208 2.92479C9.66821 2.97934 9.40148 3.10151 9.17423 3.28105C8.38649 2.81236 7.15593 3.05139 7.15593 3.95597C6.27497 3.67944 5.13764 4.14345 5.6224 5.36206C3.4363 5.40893 3.06807 7.3915 4.50372 7.56023C2.56 8.6148 3.44563 10.4896 5.03043 10.1427C5.31476 12.9549 6.56396 16.6014 4.5177 17.4966C3.55011 17.734 2.53645 17.7015 1.58581 17.4028L0.00100708 16.9622V18.4105C1.31423 18.7821 2.67343 18.9636 4.0376 18.9495C6.7271 18.673 6.87626 16.4326 6.7271 14.4594C6.57794 12.4862 5.94402 10.3115 6.17242 8.70385L6.0792 8.61011C5.10501 9.63655 4.45244 9.36002 4.35922 9.02725C4.25201 8.38982 5.38934 7.55086 6.06055 7.26964C6.06055 7.22277 6.10716 7.17591 6.10716 7.12904C5.50121 7.22277 4.76008 7.12904 4.70881 6.7119C4.65753 6.29476 5.72961 5.68546 7.13263 5.82607C7.17924 5.82607 7.17924 5.7792 7.22585 5.7792L6.9555 5.62453C6.886 5.60839 6.82112 5.57643 6.76583 5.53112C6.71055 5.4858 6.66635 5.42833 6.63663 5.36313C6.60692 5.29793 6.59247 5.22675 6.59442 5.15506C6.59637 5.08336 6.61465 5.01308 6.64786 4.94961C6.7516 4.84081 6.87839 4.75693 7.0188 4.70419C7.15921 4.65144 7.30964 4.6312 7.45891 4.64495C7.89571 4.63708 8.32927 4.72171 8.73141 4.89336C8.77803 4.89336 8.77802 4.84649 8.82464 4.84649C8.7225 4.76547 8.6302 4.67266 8.54963 4.56996C8.49324 4.50506 8.46217 4.4218 8.46217 4.33562C8.46217 4.24943 8.49324 4.16617 8.54963 4.10127C8.73206 4.01048 8.93829 3.97973 9.13908 4.01338C9.33986 4.04703 9.52502 4.14337 9.66831 4.28875L9.89671 4.51841H9.97129L10.0365 4.47622C9.95588 4.39239 9.90648 4.28312 9.89671 4.16689C9.88109 4.1337 9.87219 4.09772 9.87054 4.06104C9.86889 4.02437 9.87452 3.98772 9.8871 3.95326C9.89969 3.91879 9.91897 3.88719 9.94383 3.8603C9.96868 3.8334 9.99862 3.81175 10.0319 3.79662H10.0785C10.1838 3.77762 10.2923 3.78912 10.3913 3.82978C10.4904 3.87045 10.5759 3.9386 10.6378 4.02628C10.7563 4.206 10.8489 4.40167 10.9129 4.60746C10.361 4.63173 9.82073 4.77484 9.32859 5.02712C8.83646 5.2794 8.40392 5.63496 8.0602 6.06979C7.68554 6.62687 7.44066 7.26175 7.34382 7.92717C7.24698 8.59259 7.30066 9.27141 7.50086 9.91308C7.83609 11.3534 8.28659 12.7641 8.84794 14.1313V14.1782C9.97595 17.4028 12.1108 25.3613 1.75828 29.5795C2.30196 29.8406 2.89454 29.9828 3.4969 29.9966H4.56431C6.36429 29.0816 7.9366 27.7713 9.1649 26.1627C13.91 28.2437 18.2216 27.1845 20.0907 23.7068C20.6764 23.3379 21.1709 22.8398 21.5367 22.2502C21.9025 21.6607 22.1301 20.9951 22.2022 20.304C22.538 19.8843 22.7732 19.3924 22.8896 18.8665C23.006 18.3407 23.0005 17.7949 22.8735 17.2716C22.8268 17.0841 22.6451 17.0841 22.3607 17.2247C18.5013 19.5682 15.1079 19.9291 11.062 18.7245C10.9542 17.4486 10.7674 16.1807 10.5027 14.9281C10.4094 13.2924 10.9175 12.4909 13.868 13.4752C15.1678 13.8331 16.3738 14.473 17.4012 15.3499C17.7089 15.5796 18.1424 15.8655 18.3754 15.6593C18.4498 15.565 18.5046 15.4567 18.5366 15.3408C18.5686 15.2249 18.5772 15.1037 18.5619 14.9844C18.4734 13.9598 18.1851 12.9628 17.7135 12.0503C18.5969 12.0017 19.4823 12.0017 20.3657 12.0503C20.6668 12.0656 20.9564 12.1717 21.1966 12.3548C21.4369 12.5378 21.6168 12.7894 21.7128 13.0768C22.0205 14.0142 23.8523 13.7517 23.9921 12.983C24.2672 11.3473 24.3604 9.1866 22.7802 7.69147H22.8408ZM2.19177 21.7523C1.46381 21.7055 0.733622 21.7055 0.00566827 21.7523V22.7319C1.25487 22.4554 2.02396 22.3147 2.02396 22.3147L2.19177 21.7523Z" fill="black"/>
<path d="M13.8215 11.5112C12.1948 11.141 10.3909 10.6676 9.44932 9.26619C9.44932 9.21932 9.4027 9.21932 9.35609 9.21932C9.34948 9.29878 9.36566 9.37848 9.4027 9.44898L9.26287 9.49585C9.135 9.33872 9.06132 9.1441 9.05291 8.94124C9.04451 8.73838 9.10183 8.53827 9.21626 8.37099C9.41466 8.17004 9.67713 8.0458 9.95758 8.02009C10.238 7.99438 10.5185 8.06883 10.7498 8.23038L10.7032 8.37099C10.4806 8.30989 10.244 8.32641 10.032 8.41785C9.99926 8.43357 9.97039 8.45634 9.94741 8.48454C9.92444 8.51274 9.90791 8.54567 9.89902 8.58101C9.89012 8.61635 9.88906 8.65322 9.89593 8.68902C9.9028 8.72481 9.91741 8.75865 9.93874 8.78812C10.7218 10.3114 13.0524 10.6207 15.7932 10.3864C15.8696 10.3955 15.9467 10.3775 16.0114 10.3356C16.076 10.2937 16.1241 10.2304 16.1474 10.1567C16.3515 9.22638 16.8007 8.36837 17.4479 7.67263C17.0028 7.74579 16.5518 7.77718 16.1008 7.76637C14.7025 7.86011 13.8681 7.67263 13.6304 7.48984L13.677 7.34923C13.7245 7.37427 13.7772 7.38736 13.8308 7.38736C13.8844 7.38736 13.9372 7.37427 13.9847 7.34923C13.9874 7.3238 13.9846 7.29808 13.9766 7.27382C13.9685 7.24956 13.9554 7.22732 13.938 7.20862C13.677 6.96021 12.4651 5.69942 12.4651 5.69942C12.3253 4.58861 10.7638 4.58861 10.1858 5.61974L9.99934 5.57288C10.0384 5.37227 10.116 5.18124 10.2277 5.01044C9.6586 5.16336 9.14859 5.48539 8.76439 5.93443C8.38018 6.38348 8.13966 6.93864 8.07426 7.52733C7.51958 12.3033 14.7258 11.1785 16.7814 13.1236C16.828 13.1704 16.9212 13.311 16.9678 13.2173C17.0144 13.1236 16.1335 11.9987 13.8075 11.4878L13.8215 11.5112ZM11.3185 5.74629C11.5518 5.74433 11.78 5.81548 11.9712 5.94987C12.1625 6.08426 12.3074 6.27521 12.3859 6.4962C12.6236 7.01177 12.5723 7.52265 12.246 7.66794C12.0127 7.6814 11.7816 7.61575 11.5897 7.48148C11.3979 7.34722 11.2564 7.15211 11.1879 6.9274C11.1413 6.83366 11.1413 6.7868 11.0947 6.69774H11.1413C11.1818 6.74049 11.2336 6.77071 11.2906 6.78482C11.3476 6.79894 11.4074 6.79637 11.4629 6.77742C11.5203 6.71297 11.552 6.62954 11.552 6.54307C11.552 6.45661 11.5203 6.37317 11.4629 6.30873C11.434 6.23225 11.384 6.16564 11.3188 6.11667C11.2536 6.0677 11.1759 6.0384 11.0947 6.0322L11.0481 5.98533C11.1156 5.88347 11.2111 5.80364 11.3231 5.75567L11.3185 5.74629ZM22.0019 18.6495C20.1961 19.7977 18.1345 20.4758 16.0029 20.6227C14.3837 20.7062 12.7611 20.5483 11.1879 20.154C11.1875 20.6262 11.1407 21.0972 11.0481 21.5601C12.4053 21.8816 13.7931 22.0544 15.1872 22.0756C14.8829 23.4375 14.1799 24.6765 13.1689 25.633C15.6394 25.7221 17.9327 24.7425 18.6458 23.4348C17.6352 23.7479 16.5797 23.8889 15.5228 23.852C15.5695 23.7114 15.6627 23.6223 15.7093 23.4817C17.8488 23.388 20.1747 22.6849 20.6408 20.9039C19.2488 21.7007 17.6873 22.1507 16.0868 22.2162C16.0868 22.0756 16.1335 21.9866 16.1335 21.846C18.6272 21.5366 21.2934 20.4399 21.9926 18.6588" fill="white"/>
</svg>
